<svg width="26" height="33" viewBox="0 0 26 33" fill="none" xmlns="http://www.w3.org/2000/svg">
<path d="M12.2485 32.3185C12.5164 32.5098 12.8375 32.6127 13.1668 32.6127C13.4961 32.6127 13.8172 32.5098 14.0851 32.3185C14.5665 31.978 25.8794 23.8096 25.8335 13.613C25.8335 6.62887 20.1509 0.946289 13.1668 0.946289C6.18272 0.946289 0.500139 6.62887 0.500139 13.605C0.454223 23.8096 11.7671 31.978 12.2485 32.3185ZM13.1668 4.11296C18.4061 4.11296 22.6668 8.37371 22.6668 13.6209C22.7001 20.6477 15.7191 26.9573 13.1668 29.0267C10.6161 26.9557 3.63356 20.6445 3.66681 13.613C3.66681 8.37371 7.92756 4.11296 13.1668 4.11296Z" fill="#2091F9"/>
</svg>
