<svg width="32" height="39" viewBox="0 0 32 39" fill="none" xmlns="http://www.w3.org/2000/svg">
<path d="M14.8898 38.5891C15.2142 38.8208 15.6029 38.9453 16.0015 38.9453C16.4001 38.9453 16.7887 38.8208 17.1131 38.5891C17.6958 38.1771 31.3904 28.289 31.3348 15.9456C31.3348 7.49122 24.4559 0.612305 16.0015 0.612305C7.54705 0.612305 0.668137 7.49122 0.668137 15.9361C0.612554 28.289 14.3071 38.1771 14.8898 38.5891ZM16.0015 4.44564C22.3437 4.44564 27.5015 9.60339 27.5015 15.9552C27.5417 24.4614 19.0911 32.0993 16.0015 34.6044C12.9137 32.0974 4.46122 24.4576 4.50147 15.9456C4.50147 9.60339 9.65922 4.44564 16.0015 4.44564Z" fill="white"/>
</svg>
